<svg width="50" height="41" viewBox="0 0 50 41" fill="changeCategoryColor"
    xmlns="http://www.w3.org/2000/svg">
    <path fill-rule="evenodd" clip-rule="evenodd" d="M32.3715 27.6169C34.8919 27.5629 33.2716 27.4909 34.7839 31.0196C35.198 31.9737 36.3862 34.1521 36.8543 34.9983C42.7414 35.4484 41.1391 35.0883 43.6055 30.8035C44.4877 29.2552 44.2897 29.8313 44.2537 27.6709C45.3699 27.6169 47.5123 26.8608 46.8822 31.4336C46.3961 34.9623 43.3175 38.1849 39.3028 38.2389C36.5662 38.2749 34.2078 36.8526 32.8576 34.9983C32.2994 34.2422 31.6153 32.7659 31.5073 31.6677C31.3273 29.8313 31.5793 30.8035 32.0474 29.9574C32.5875 28.9852 32.3715 28.9132 32.3715 27.5989V27.6169ZM2.73796 27.5989L4.61031 27.6529C5.0964 28.6971 4.98838 29.9574 5.90655 31.5417C6.59067 32.7299 7.14878 33.7201 7.65287 34.9623C11.8116 35.4304 12.2437 35.2864 13.1799 33.342C14.0081 31.5957 15.1423 30.1374 15.1603 27.761L16.4565 27.5449C16.8706 28.5171 16.5105 28.6611 16.8886 29.5073C17.1046 30.0114 18.905 30.8395 16.6365 34.5122C12.5498 41.1554 0.325511 38.833 2.71996 27.5809L2.73796 27.5989ZM3.13403 17.175C3.92618 16.9589 5.36645 16.3648 6.2126 16.0408C7.90492 15.4107 11.6136 13.4123 12.3697 13.3943C18.0588 13.1962 16.7986 13.4123 19.6971 17.229C21.9655 20.1995 20.6153 19.8395 24.558 19.8395C27.3125 19.8395 26.7364 19.5154 27.7986 17.337C28.2667 16.3648 29.0408 13.9884 29.4729 13.3763C34.4238 13.2683 36.3142 15.6447 39.7348 17.445C40.797 18.0031 41.7512 18.3812 42.7954 19.2634L38.7266 19.3534C35.288 19.3354 35.45 21.5858 38.4206 21.5858C40.9411 21.5858 43.4615 21.5678 45.964 21.5498L45.928 25.3305L30.7692 25.4025C29.2929 27.779 31.4893 26.9868 29.2029 29.7413L28.3567 30.8935C27.7626 31.6317 27.2765 32.5858 26.2503 32.7659C25.3502 32.9279 23.3698 32.8559 22.5776 32.7119C22.5056 32.6759 22.4336 32.5138 22.3976 32.5678L21.2634 31.3076C20.1112 30.0114 19.157 29.0572 19.049 27.995C18.887 26.5187 19.4091 26.6988 18.5089 25.6186C17.6627 25.1865 5.07839 25.2225 3.20605 25.4025L3.15204 21.5858L12.6218 21.5498C13.648 18.3632 9.72326 19.3894 3.17004 19.3534V17.193L3.13403 17.175ZM18.6709 2.41224L24.7741 2.25021C25.5122 4.8607 26.2503 7.48919 26.9885 10.2617C28.1227 14.5645 26.6284 11.3419 25.4042 17.6611L22.8297 17.6251C21.7675 16.3828 19.139 13.0702 18.8149 11.81C18.6169 10.9998 18.5269 3.51045 18.6709 2.41224ZM43.6236 17.067C42.9934 16.7429 42.6154 16.4008 41.9312 16.1128C41.9492 14.9606 42.2733 13.0342 41.2651 12.6201C40.545 12.3321 40.2029 12.5121 39.8068 13.1062L39.3208 14.6005C34.7479 12.6381 35.8641 11.0538 29.5089 11.1259C28.7168 8.38935 28.1227 4.95072 27.3485 2.53827C28.3387 2.08818 28.5007 1.92615 28.6628 1.60209C29.2929 -0.41428 25.9083 0.0538068 24.27 0.0538068C12.8018 0.0718101 13.2699 -0.95438 12.2977 4.78869C11.9377 6.89508 11.1995 9.39754 10.7675 11.5579C8.53504 12.116 5.33044 13.7544 3.24205 14.7625C1.00964 15.8427 1.58575 15.1226 1.08165 16.2028C0.577558 17.391 0.937625 20.8837 0.847608 22.486C0.505545 28.5171 0.721585 24.5744 0.145478 28.4631C-1.76288 41.2995 14.5842 44.108 18.8149 35.2503C19.031 34.8003 19.139 34.4222 19.337 34.0441C19.6251 33.468 19.337 34.0081 19.6971 33.468L20.0032 33.1079C21.2634 35.5924 21.3174 35.0343 24.8461 35.0523C25.8723 35.0523 27.0245 35.2143 27.8346 34.7643L29.4729 33.27C31.1832 36.7626 31.5433 38.0769 35.144 39.6972C38.3666 41.1554 42.1473 40.6333 44.8658 38.779C51.0589 34.5482 48.7185 28.6071 48.3404 25.6726C47.3322 17.9851 50.5548 21.6758 43.6236 17.103V17.067Z" />
</svg>
