<svg width="49" height="36" viewBox="0 0 49 36" fill="white"
    xmlns="http://www.w3.org/2000/svg">
    <path fill-rule="evenodd" clip-rule="evenodd" d="M44.9762 28.5042C43.3474 36.6295 31.2428 34.2048 32.9271 26.1536C34.5559 18.343 46.5309 20.7861 44.9762 28.5042ZM22.8584 16.6957C23.7838 16.1034 24.6537 15.6592 25.3015 15.1225C25.6347 12.3091 24.7278 11.6799 26.4121 10.0696C27.5411 8.9961 28.3925 8.10769 29.466 7.03419C32.4274 7.36734 37.6098 8.88505 40.5897 9.68092C42.8107 10.2732 43.7731 10.7544 44.0138 13.1235C44.3284 16.3625 42.9032 17.325 46.5124 17.436L46.4569 20.1938L44.5875 21.2673C43.2179 20.5455 43.0143 20.0457 41.219 19.5275C36.962 18.2874 33.4268 20.3234 31.3168 24.0251C29.4845 24.0436 26.7637 24.4138 25.2645 23.877L24.8944 21.693C26.3565 21.693 27.9853 21.8226 29.1328 21.3414L29.2439 19.8792C27.6706 19.3609 26.0789 19.7126 24.2465 19.509C23.2656 18.0468 23.099 17.1584 22.8769 16.6957H22.8584ZM20.9335 5.68306C20.841 5.7756 20.2117 6.44191 20.1561 6.64551C19.934 7.2748 20.0451 6.8491 20.0821 7.31182C20.2672 9.88452 23.2286 6.58998 23.5062 6.38639L25.135 8.18172C23.3211 11.0691 23.3766 7.9226 23.2471 13.7898C22.6363 14.2896 21.9885 14.7153 21.1371 15.0484C18.2498 11.4763 15.2514 11.6613 13.5856 10.6249C12.8637 10.1807 10.0689 4.0543 9.49518 2.90677C7.12608 -1.72039 2.09173 0.167491 2.07322 2.09239C2.03621 4.22088 4.09066 9.12566 4.18321 11.7539C3.16523 12.3277 2.35085 12.8644 1.49946 13.4382C-0.814122 15.0484 0.425955 17.2324 2.4434 15.5111C6.14512 12.3647 11.4016 11.7169 15.7881 13.6603C16.8616 14.1415 17.9536 14.9004 18.7495 15.6407C20.2672 17.0844 20.0266 16.6957 21.0631 18.2689C21.7664 19.3609 22.2661 20.2308 22.6733 21.6005C23.3396 23.84 22.4327 26.0796 24.8203 26.2276L30.7431 26.1536C30.3729 32.0578 34.852 36.9811 40.9043 35.519C43.3845 34.9267 45.4944 33.0758 46.4384 31.1324C47.9376 28.0415 47.1417 25.7094 46.0867 23.0071C46.8826 22.2668 47.5304 22.1002 48.4373 21.3599C48.8445 19.8977 48.789 17.1029 48.4373 15.6037C47.9191 15.4001 47.4934 15.4186 47.0862 15.3075C46.2718 15.0669 46.5494 15.4556 46.1608 14.7708C46.1793 9.38478 44.6801 8.5519 39.9604 7.33033C37.4247 6.66402 31.2243 4.85017 28.8922 4.68359L26.7267 6.55297L25.1165 4.86868C25.7457 3.64711 27.6151 3.16589 26.4861 1.57415C25.3386 0.667224 22.3587 4.33193 20.9705 5.68306H20.9335Z"/>
    <path fill-rule="evenodd" clip-rule="evenodd" d="M2.10984 26.3016C0.740202 14.7892 17.6571 13.1234 18.9527 24.1546C19.5264 29.1149 15.6952 33.1127 11.4567 33.557C6.60743 34.0567 2.60957 30.4845 2.10984 26.3016ZM20.785 27.6712C22.4693 21.1192 17.8607 15.9368 12.9189 14.8262C-0.907064 11.6798 -5.25659 32.2428 7.97707 35.4078C14.4181 36.944 19.5079 32.65 20.785 27.6897V27.6712Z"/>
    <path fill-rule="evenodd" clip-rule="evenodd" d="M38.0163 23.2841C33.0745 24.1725 33.8148 32.705 39.8486 31.5389C42.0882 31.1132 43.5318 29.3179 43.0506 26.5601C42.6989 24.5612 40.4779 22.8399 38.0163 23.2656V23.2841Z"/>
    <path fill-rule="evenodd" clip-rule="evenodd" d="M9.64289 22.0637C13.5667 20.7496 15.3065 26.7649 11.7529 28.0975C7.62545 29.6337 5.31187 23.5259 9.64289 22.0637ZM9.55034 19.9537C2.35049 21.5454 4.88617 31.8733 11.7529 30.3C14.2515 29.7263 16.417 27.0795 15.6952 23.8775C15.1585 21.4714 12.6413 19.2689 9.55034 19.9352V19.9537Z"/>
</svg>
