<svg width="49" height="43" viewBox="0 0 49 43" fill="changeCategoryColor"
    xmlns="http://www.w3.org/2000/svg">
    <path fill-rule="evenodd" clip-rule="evenodd" d="M39.3574 27.5493C42.9091 26.8472 46.0684 29.5523 46.6465 32.5051C48.2778 40.8885 35.6613 43.2012 34.1539 35.0036C33.4312 31.039 36.0949 28.1894 39.3574 27.5493ZM10.7999 13.1776C13.1126 13.1983 15.4459 12.8266 16.5197 13.6526C19.8235 16.1924 14.7645 16.2337 26.4518 16.2337C43.7763 16.2337 38.6347 15.9239 40.0182 21.4992C40.4725 23.3576 42.4961 22.2425 42.558 25.4638C35.4341 24.3694 34.1746 28.1481 32.44 30.3369C26.9474 30.3369 26.5757 30.8944 26.0802 29.3871C26.0182 29.2012 25.9976 28.4785 25.9769 28.2514L29.735 28.0036C30.3338 25.0095 27.7321 26.3517 25.3161 25.8974C24.1185 23.8119 22.6524 21.0242 20.4636 19.3517C14.1657 14.5405 9.60228 16.6054 5.82352 16.8531L5.80287 14.6437C7.3309 13.095 8.2188 13.1363 10.7793 13.1363L10.7999 13.1776ZM14.3722 2.37822L20.4843 2.35757L23.5197 13.9829H19.5757C17.676 10.4107 15.9415 11.0714 14.3515 10.9269L14.3722 2.37822ZM22.8796 2.56406C23.7055 1.94459 24.325 2.02719 24.1598 0.561113C22.7144 -0.347441 13.8766 0.127485 11.6465 0.127485C5.05951 0.127485 6.67013 6.09504 6.40169 11.3812C5.82352 12.0626 4.37809 12.8679 3.63473 13.3635L3.57278 17.9269C2.00346 18.9387 -0.722201 20.2602 0.475439 21.6644C1.73503 23.1717 3.09786 19.9918 7.41349 18.7942C10.3043 17.9888 13.5875 18.216 16.1687 19.393C24.9238 23.3782 23.2925 30.8944 24.5521 32.0714C25.7085 33.1658 30.0654 32.4638 31.8825 32.5051C31.3456 41.157 39.2129 44.0891 44.4371 41.3428C46.7291 40.1452 48.9592 37.5847 49.0005 33.8679C49.0212 30.1304 47.266 28.0655 44.7675 26.393C44.2926 22.1599 45.1805 22.8413 42.1657 20.7971C42.1864 13.508 39.151 13.9829 33.2041 13.9829C33.2247 12.6614 33.3486 9.58471 33.0389 8.49032C32.0684 5.20713 27.6701 6.01244 29.1362 8.03604C30.3751 9.7499 31.1392 5.99179 30.974 13.9623L25.8737 13.9829L22.8796 2.54341V2.56406Z" />
    <path fill-rule="evenodd" clip-rule="evenodd" d="M8.59032 23.0065C13.959 21.3959 18.2127 24.9475 19.3897 28.9741C20.9797 34.3428 17.2422 38.7617 13.3189 39.8768C2.47822 42.9534 -2.91116 26.4756 8.59032 23.0272V23.0065ZM0.0416427 32.4638C0.537218 38.1216 5.67881 42.8709 11.8942 42.334C17.6552 41.8384 22.4251 36.8414 21.8883 30.4608C20.67 16.0891 -1.23859 17.8237 0.0416427 32.4638Z" />
    <path fill-rule="evenodd" clip-rule="evenodd" d="M7.72332 32.1756C6.77346 27.6534 13.5257 26.4764 14.2071 30.7921C14.5168 32.795 13.2159 34.385 11.564 34.6534C9.68497 34.9632 8.03305 33.621 7.72332 32.1756ZM9.66432 26.1048C2.91211 27.7154 4.83246 38.3496 12.2454 36.7596C14.8059 36.2021 17.0979 33.4145 16.3339 30.0487C15.7145 27.4057 13.0301 25.2788 9.68497 26.0841L9.66432 26.1048Z" />
    <path fill-rule="evenodd" clip-rule="evenodd" d="M44.6025 35.0246C46.2751 29.4907 37.6645 27.0748 36.1984 32.5674C34.6704 38.2872 42.9712 40.4347 44.6025 35.0246Z" />
</svg>
