<svg width="50" height="38" viewBox="0 0 50 38" fill="changeCategoryColor" xmlns="http://www.w3.org/2000/svg">
    <path fill-rule="evenodd" clip-rule="evenodd" d="M39.0782 33.9986H38.6433V26.4885L42.0214 30.171C42.5288 30.8234 45.066 33.3896 45.385 33.9841H41.6299C41.3544 33.9841 41.2095 33.9261 41.0645 33.9261L40.3106 33.9841C40.0351 33.9841 39.8901 33.9261 39.7451 33.9261C39.4552 33.9261 39.5132 33.9841 39.0927 33.9841L39.0782 33.9986ZM3.09348 32.0123C3.09348 30.606 3.36894 29.4461 4.49981 28.4457C7.124 26.126 12.0389 27.3149 12.0389 32.0123C12.0389 34.0421 9.99466 36.1008 7.9504 36.1008C6.42808 36.1008 5.52919 35.9703 4.36933 34.825C3.7459 34.2015 3.09348 33.2012 3.09348 32.0268V32.0123ZM26.3777 36.2023C24.4784 36.2023 22.4922 35.3759 21.2163 34.0856C16.6494 29.4606 19.7085 22.9364 24.6379 21.8925C26.3487 21.53 27.6971 21.6025 29.2774 22.2695C31.9596 23.4148 33.6124 25.8795 33.7718 28.8227C33.8588 30.5915 32.8585 32.7807 31.5971 34.0276C30.3068 35.3179 28.219 36.2023 26.3777 36.2023ZM10.7051 26.271H17.5483C17.3453 26.6914 17.1133 28.2572 17.1133 28.9242C17.1133 29.6926 17.2873 30.1565 17.3308 30.7944H13.7932C13.7787 29.9535 13.1263 28.6632 12.7348 28.0978C12.4594 27.6918 12.1839 27.4598 11.8359 27.1264L10.7051 26.271ZM31.9016 21.6315C33.7428 21.6315 32.9599 21.6025 34.0038 22.3999C34.3373 22.6609 36.7585 24.9806 36.8455 25.2996C36.9325 25.6186 36.8745 27.6483 36.8745 28.1413C36.338 27.7788 35.4101 26.9234 35.1927 26.3C35.1202 26.1115 35.0767 25.9665 34.9897 25.7345C34.8447 25.3866 34.7432 25.0821 34.5403 24.7487C33.6269 23.2118 33.8153 23.4873 32.6555 22.3274C32.409 22.081 32.061 21.8345 31.9161 21.6315H31.9016ZM2.76002 21.6315H20.7524C20.5204 21.9795 18.7081 23.3568 18.4327 24.3862H3.97787L2.76002 21.6315ZM3.19497 19.8627L4.05036 16.5281C4.19535 15.9337 4.34033 15.4118 4.49981 14.8753C4.63029 14.4549 4.92026 13.527 4.94926 13.121H12.2274V15.3248C12.2274 16.7456 13.2713 17.978 14.6486 17.978H25.4643C25.4643 20.2977 25.9283 19.8482 23.0431 19.8482H3.18047L3.19497 19.8627ZM27.2476 19.3118V17.9925H29.0164V19.8627H27.2476C27.3781 19.2248 27.2476 19.8192 27.2476 19.3118ZM14.1122 15.4553V10.0474C14.1122 8.65557 15.301 8.82955 17.1423 8.55408C17.8672 8.4381 18.3602 8.3656 19.0561 8.26412C19.694 8.17713 20.4334 8.04664 21.0713 7.95965L29.0164 6.7418V16.1222C26.8272 16.1222 15.4315 16.2962 14.2282 16.0062C14.1702 15.7597 14.1122 15.7597 14.1122 15.4553ZM35.4101 19.8627H30.8867V9.04702H39.8321L38.5563 15.3828C38.0778 17.746 38.0778 19.8627 35.4246 19.8627H35.4101ZM41.3689 7.17674H30.8867V6.62581H40.7165C41.4994 6.61131 41.5574 6.46633 41.7024 7.07526C41.5719 7.14775 41.5864 7.19124 41.3689 7.19124V7.17674ZM2.74552 4.30608L2.16559 3.66816C2.31057 3.46518 2.26708 3.50868 2.44105 3.3492L2.61503 3.18972C3.7314 2.16034 3.89088 1.76888 4.94926 1.76888H24.0435C25.1599 1.76888 24.8119 3.59567 24.8119 5.52394L23.8115 5.63993C23.8115 4.33508 24.116 2.65328 22.8111 2.65328H4.93476C4.13735 2.65328 3.31095 3.91463 2.73102 4.30608H2.74552ZM-0.00915527 3.53768C-0.00915527 4.65404 1.07822 5.10349 1.89012 5.94439C2.97749 7.06076 3.70241 5.94439 4.20985 5.43695C5.64517 4.01612 5.50019 4.45107 7.06601 4.48006C7.42846 4.49456 7.1385 4.40757 7.60244 4.40757C7.87791 4.40757 8.02289 4.46557 8.16788 4.46557L9.58871 4.40757C9.86418 4.40757 10.0092 4.46557 10.1541 4.48006C10.5166 4.49456 10.2266 4.40757 10.6906 4.40757C10.966 4.40757 11.111 4.46557 11.256 4.46557L12.6768 4.40757C12.9523 4.40757 13.0973 4.46557 13.2423 4.46557H16.3304C16.6204 4.46557 16.5624 4.40757 16.9828 4.40757C17.2583 4.40757 17.4033 4.46557 17.5483 4.46557L21.9557 4.40757V5.95889L15.9969 6.84328C12.6188 7.30723 12.2419 8.24962 12.2419 11.3667H4.6303C3.18047 11.3667 3.03548 13.4255 2.68753 14.6144L1.57116 18.6739C0.802749 21.6895 0.382298 21.1821 2.0206 24.4587C2.54254 25.4881 2.8905 26.2565 4.41282 26.2565C4.10836 26.5175 3.7459 26.6479 3.22396 27.1699C-2.72033 33.0562 5.63068 41.5667 11.7779 36.3763C12.5464 35.7239 13.7642 33.9696 13.7932 32.6502H17.9832C18.2587 33.6941 19.839 35.4629 20.8539 36.1878C23.1011 37.7826 24.4349 37.9566 27.0301 37.9566C28.074 37.9566 29.6398 37.4637 30.3647 37.0867C31.7566 36.3473 32.9164 35.4339 33.8443 34.1726C34.1053 33.8246 34.4678 33.2592 34.6417 32.8822C35.0187 32.0703 35.5261 30.635 35.5261 29.4606C37.3819 30.7075 36.8455 31.4469 36.8455 33.0997C36.8455 35.8399 36.715 35.7529 39.2667 35.7529C42.6448 35.7529 46.0374 35.7529 49.4155 35.7529C48.9515 35.0569 47.5452 33.6941 47.0233 33.0707L46.0519 31.9543L45.9504 31.8383L45.414 31.2584C45.0515 30.8959 44.921 30.664 44.5876 30.316L39.2377 24.4152C39.0637 24.2412 38.9622 24.0527 38.8317 23.9368C38.3388 23.4583 38.0343 23.7918 37.5704 23.4293C37.3239 23.2263 35.9901 21.8635 35.8451 21.6315C37.4544 21.6315 38.7158 20.6457 39.3392 19.6018C39.8756 18.6884 40.2381 16.3252 40.4556 15.1943C40.76 13.614 41.079 12.1932 41.3979 10.6128C41.4559 10.2939 41.5284 9.90242 41.6154 9.49647C41.7604 8.81505 41.7749 9.04702 42.3548 8.80055C44.1381 8.00315 43.8626 4.74103 41.166 4.74103H30.6837C29.5528 4.74103 26.8562 5.34996 26.6967 5.17598C26.5227 5.002 26.6967 5.08899 26.6677 4.65404C26.5952 2.92875 26.8417 1.72539 26.1312 0.898988C25.7253 0.435042 25.2179 -0.0144043 24.3915 -0.0144043H4.19535C2.76002 -0.0144043 1.84662 1.59491 0.831745 2.36331C0.440291 2.65328 -0.00915527 2.89975 -0.00915527 3.50868V3.53768Z" />
        <path fill-rule="evenodd" clip-rule="evenodd" d="M26.276 26.2711C29.9441 26.2711 29.9006 31.563 26.392 31.563C25.0002 31.563 23.7533 30.5336 23.6663 28.9968C23.6228 28.3298 24.0288 27.489 24.3767 27.112C24.7247 26.7205 25.6091 26.2566 26.2905 26.2566L26.276 26.2711ZM21.8685 28.5908V29.2577C21.8685 31.679 24.4057 33.5347 26.5225 33.4187C30.6255 33.1868 32.1768 28.4458 29.7411 25.9231C26.7545 22.835 21.8685 25.1547 21.8685 28.6053V28.5908Z" />
        <path fill-rule="evenodd" clip-rule="evenodd" d="M6.31215 31.9104C6.31215 29.7212 8.89285 30.3301 8.89285 31.606C8.89285 33.6937 6.31215 33.2153 6.31215 31.9104ZM4.55786 31.7074C4.55786 33.3892 5.9207 34.7086 7.24004 34.7086C8.19693 34.7086 8.99434 34.6651 9.80624 33.8532C11.6765 31.9829 10.2412 28.7063 7.66049 28.7063C5.99319 28.7063 4.55786 30.0401 4.55786 31.7074Z" />
        <path d="M7.60222 33.9987C8.87537 33.9987 9.90745 32.9731 9.90745 31.708C9.90745 30.4428 8.87537 29.4172 7.60222 29.4172C6.32908 29.4172 5.297 30.4428 5.297 31.708C5.297 32.9731 6.32908 33.9987 7.60222 33.9987Z"  stroke="white" stroke-width="0.550935" stroke-miterlimit="22.9256"/>
</svg>
