<svg width="50" height="32" viewBox="0 0 50 32" fill="white"
    xmlns="http://www.w3.org/2000/svg">
   <path fill-rule="evenodd" clip-rule="evenodd" d="M10.5585 26.5812C9.36045 32.4591 0.356334 30.6808 1.68542 24.625C2.93964 18.9249 11.7378 20.7875 10.5585 26.5812ZM23.3908 25.9728C23.11 20.0761 32.0579 19.3929 32.4698 25.3644C32.6476 27.9945 30.6821 30.1005 28.1924 30.2221C25.6465 30.3532 23.5031 28.3783 23.3908 25.9634V25.9728ZM11.1482 22.0604L22.9041 22.0417C22.642 22.6501 22.2957 23.09 22.0617 23.9043C21.3597 26.3846 24.2238 26.2161 12.2245 25.9822C12.2526 23.9043 11.7098 23.5018 11.1482 22.0604ZM42.6626 20.6377L44.6749 15.9765C45.8356 16.0233 46.7528 15.6021 47.3799 15.1154C48.6622 16.6036 48.7745 18.4662 47.4267 20.0106C46.341 21.2555 44.469 21.3959 42.6626 20.6471V20.6377ZM20.9947 20.4037L13.1699 20.4412L11.9999 18.1386C14.0591 17.7081 17.7187 18.8687 17.7281 17.2307C17.7281 16.95 17.5409 16.7253 17.2788 16.613C16.8108 16.4071 11.4758 16.5288 10.727 16.5288C7.69441 16.5288 4.6712 16.5194 1.63863 16.5381C1.51695 12.0641 1.05832 11.3715 3.18299 9.68676C4.10961 8.94733 9.2575 9.36852 10.9329 9.36852C13.5911 9.36852 16.4365 9.26557 19.0759 9.3498C20.7981 9.40596 20.5922 10.3139 21.3878 11.0533C22.1459 11.7553 23.9898 11.4651 25.0287 11.4558L20.9947 20.4037ZM18.6828 1.58118L23.0725 1.61862L25.244 9.91139H22.4361C20.9198 7.48721 20.5454 7.768 18.6922 7.75864L18.6828 1.58118ZM24.5888 16.4539C24.9071 15.2933 25.9834 13.3745 26.5357 12.1203C27.4342 10.0705 30.9067 7.11282 32.6008 5.39061C34.1358 3.83689 34.8472 2.6482 36.5881 2.83539C37.0935 3.47186 37.7861 3.94921 37.0935 4.9975L33.6304 8.46062C32.8442 9.38724 33.2373 10.0237 33.022 11.3341C32.891 12.1203 28.7446 16.3228 27.9864 16.4726C27.4623 16.5756 25.1972 16.51 24.5795 16.4539H24.5888ZM24.7573 1.79645C24.7947 1.76837 24.8603 1.7403 24.8883 1.73094C24.9164 1.71222 24.9913 1.68414 25.0194 1.66542L25.5155 1.33782C25.7214 1.10383 25.7962 1.01023 25.7214 0.6452C25.581 -0.0661438 25.0943 0.00873448 24.3268 0.00873448H17.0168C11.9157 0.00873448 13.5349 3.86497 12.9921 7.768L9.22006 7.79608C8.89246 6.32659 9.84716 2.86347 7.19834 2.47036C6.05645 2.30188 6.01901 2.71371 6.04709 3.73393C7.77865 4.66991 7.54465 3.71521 7.54465 7.79608C2.61204 7.84288 3.37955 7.17833 0.730726 9.88331C-0.205253 10.838 0.0942602 12.0922 0.0942602 13.7957C0.0942602 19.5333 -1.32843 17.8204 10.2684 18.1012L11.2605 20.4318C7.98456 20.5254 6.38404 18.3446 2.81796 20.4973C-1.98361 23.3801 -0.523486 31.7665 6.05645 31.8039C8.99542 31.8227 11.2886 29.8103 11.897 27.592L22.1366 27.564C22.6514 29.7916 25.0943 31.832 27.9864 31.8039C34.3605 31.7478 36.1669 23.6048 31.2062 20.5067C27.6963 18.3165 25.9554 20.5535 22.745 20.4131L23.7371 18.0638L29.0815 18.0263C30.1017 16.6411 32.1141 14.9282 33.359 13.674C34.7536 12.2701 34.4353 12.9908 34.6506 10.5011C34.7629 9.27493 35.3432 8.7227 36.5132 8.08623C38.3758 10.239 41.9044 12.9346 43.168 15.4149L41.2399 19.9451C40.4069 19.7298 40.3039 19.552 39.4709 19.786C39.2369 21.2742 40.1167 21.2835 41.4552 21.8545C42.4754 22.285 43.3646 22.7905 44.6281 22.8185C48.4937 22.9028 50.9179 18.9436 49.6263 15.7145C48.7839 13.6179 48.3627 14.5445 48.2036 13.1592C48.0351 11.7366 47.9977 11.0814 46.8277 10.37C44.3193 8.8631 40.5473 4.55759 38.2728 2.2738C34.2107 -1.77899 30.4013 6.7197 26.6761 8.99413L24.7573 1.79645Z" />
        <path fill-rule="evenodd" clip-rule="evenodd" d="M26.8623 22.743C23.2307 24.0908 24.7564 29.819 28.9777 28.6023C32.6748 27.5352 30.8964 21.2455 26.8623 22.743Z" />
        <path fill-rule="evenodd" clip-rule="evenodd" d="M5.00722 22.7898C1.48794 24.0534 2.94807 29.8845 7.06637 28.6397C7.8994 28.387 8.53586 27.8909 8.8073 27.2919C9.18169 26.4682 9.32208 25.551 9.05065 24.6337C8.63882 23.211 6.8979 22.1159 4.99786 22.7898H5.00722Z" />
</svg>
