<svg width="40" height="40" viewBox="0 0 40 40" fill="none"
    xmlns="http://www.w3.org/2000/svg">
    <circle cx="20" cy="20" r="20" fill="white"/>
    <path fill-rule="evenodd" clip-rule="evenodd" d="M39.2047 25.6025C39.7224 23.8248 40 21.9448 40 20C40 18.5352 39.8425 17.1071 39.5436 15.7318L39.3593 15.8959C39.3075 15.942 39.2463 15.9762 39.1798 15.996L35.9266 16.9652L35.9314 20.4839C35.9317 20.6685 35.8246 20.8363 35.6571 20.9138L32.3551 22.442L34.9821 26.9717L38.653 25.4582C38.8515 25.3764 39.0761 25.4392 39.2047 25.6025ZM38.7987 26.8429L38.6159 26.4967L34.9606 28.0037C34.7417 28.094 34.4899 28.0085 34.3712 27.8038L31.2766 22.4679C31.2099 22.3529 31.1947 22.2151 31.2347 22.0882C31.2748 21.9614 31.3664 21.8573 31.4871 21.8014L34.9851 20.1825L34.9802 16.6134C34.9799 16.404 35.1174 16.2193 35.3181 16.1595L38.8088 15.1195L39.2882 14.6926C36.9629 6.22286 29.2081 0 20 0C8.9543 0 0 8.9543 0 20C0 31.0457 8.9543 40 20 40C28.6421 40 36.004 34.5187 38.7987 26.8429Z" fill="#BD0008"/>
    <path fill-rule="evenodd" clip-rule="evenodd" d="M28.3947 26.8891C26.2465 26.8732 25.6418 27.2551 25.6631 24.8576C25.6684 24.0355 25.6525 23.2187 25.679 22.4125C25.7055 21.4896 25.8328 21.2509 26.7557 21.1183C26.9838 22.2109 27.2914 22.9906 27.6097 24.0567C27.7847 24.6402 28.3894 26.4011 28.4 26.8891H28.3947ZM8.14372 20.5242C10.2282 20.0362 12.0263 21.6009 12.3658 23.2876C12.8007 25.4411 11.289 27.1596 9.62356 27.5044C4.99841 28.4538 3.50796 21.6062 8.14372 20.5242ZM18.6723 20.5083C20.5712 20.1105 22.5071 21.3888 22.8572 23.3672C23.0375 24.3962 22.7776 25.3615 22.2578 26.0988C20.3908 28.7455 16.3544 27.5945 15.8505 24.6985C15.4846 22.6034 16.8954 20.8849 18.6776 20.5083H18.6723ZM3.11546 22.6883C2.31985 22.2162 2.53732 22.1897 2.55323 21.1448L3.5557 20.9751L3.59813 18.8481C4.40966 18.8747 5.76219 18.9277 6.45172 18.7633C6.58963 17.973 6.26608 17.9252 5.48108 17.9358C4.84459 17.9411 4.21341 17.9464 3.57692 17.9358C3.64587 16.0476 5.44395 16.6363 8.84386 16.5939C9.77207 16.5833 9.62886 16.4666 10.1062 16.9864C10.4404 17.3471 10.6048 17.6918 10.9443 17.7926C11.5277 17.9623 13.6918 17.9199 14.1214 17.7449C14.3336 17.6123 14.6094 16.9599 14.7579 16.6682L15.6861 16.631C16.2112 17.294 16.6143 17.1296 16.6461 18.1321C16.6621 18.5776 16.7416 20.137 16.5825 20.4447C16.2324 21.1342 15.2087 20.5879 14.4396 20.8531C14.0684 20.9804 13.9305 21.4577 14.3283 21.6805C14.5457 21.8025 15.214 21.7282 15.4952 21.7229C15.0337 22.5769 14.8003 23.4521 14.9223 24.6349H13.3364C13.2993 23.0861 13.2038 22.1048 12.3127 21.1713C8.8969 17.5698 4.62182 20.5401 4.44678 23.5104C3.90577 23.2717 3.59283 22.9853 3.11546 22.7042V22.6883ZM10.6419 16.212C10.2813 15.7665 10.4616 12.8545 10.451 12.165L12.928 12.1703C13.4054 14.8383 14.1585 14.8011 13.6281 16.9068H11.3898L10.6419 16.212ZM13.8456 12.3719C14.201 11.8733 14.7049 12.2764 14.4768 11.3376C13.9729 11.1678 9.32653 11.1466 8.64761 11.3217C7.9846 11.4967 7.38524 12.1385 7.27385 12.8545C7.16777 13.5388 7.24203 14.939 7.24733 15.6922H6.39868C6.39338 15.0982 6.48355 13.8676 6.27138 13.3955C5.96905 12.7431 4.62712 12.1756 4.66425 13.1463C4.68016 13.4963 4.63243 13.2736 4.82868 13.438C5.04614 13.6236 5.1257 13.4857 5.47047 13.7403L5.49169 15.6922C2.04404 15.6073 2.83435 17.4107 2.65931 20.1741L1.7258 20.2961C1.58789 20.8319 1.53485 22.2586 1.71519 22.7944C1.96448 23.1391 1.68867 22.858 2.10239 23.1338L3.23215 23.8552C3.75195 24.1893 4.3407 24.375 4.52104 25.0062C5.71976 29.1911 10.2229 29.2547 12.1801 27.0323C12.6734 26.4754 12.7583 26.2102 13.1348 25.526L15.108 25.5472C15.7922 26.6292 15.7391 26.8626 16.678 27.5839C18.7094 29.138 21.6108 28.6129 22.9792 26.6982C23.8119 25.526 23.0588 25.6426 24.7879 25.632C24.7773 26.8361 25.3554 27.6476 26.4799 27.7802C27.2331 27.8703 29.7048 27.9075 30.2086 27.6264L30.1927 27.0641C29.9753 26.9474 29.6995 26.9315 29.4183 26.8361C29.0205 25.8707 28.7606 24.5447 28.4477 23.4998C28.3045 23.0171 27.6627 20.572 27.2808 20.328C26.9254 20.1052 24.8834 19.9938 24.7189 22.3647L23.552 22.3966C23.1171 21.585 22.9421 20.9804 21.7327 20.206C20.3537 19.3255 20.6931 18.5935 19.9718 18.026C19.4891 17.6494 18.3063 17.8722 17.6062 17.8297C17.6062 16.5833 17.2349 17.0076 16.6196 16.2704C15.9672 15.4907 16.0256 15.7293 14.8268 15.6233C14.7155 14.9602 14.1585 12.9023 13.8562 12.3719H13.8456Z" fill="white"/>
    <path fill-rule="evenodd" clip-rule="evenodd" d="M10.1275 24.5077C9.42734 26.1626 6.85487 25.176 7.65048 23.4469C8.36122 21.9034 10.817 22.8794 10.1275 24.5077ZM8.52034 21.808C5.44398 22.4338 6.42524 26.8097 9.369 26.1997C12.1059 25.6322 11.3739 21.2245 8.52034 21.808Z" fill="white"/>
    <path fill-rule="evenodd" clip-rule="evenodd" d="M18.0411 24.2739C17.9085 22.3698 20.2794 22.0727 20.6613 23.717C21.1281 25.706 18.1472 25.828 18.0411 24.2739ZM18.614 21.9348C17.5903 22.2425 16.8159 23.2821 17.2084 24.7089C17.4577 25.6159 18.72 26.5918 20.0938 26.141C22.645 25.3029 21.7274 20.996 18.6087 21.9348H18.614Z" fill="white"/>
</svg>