<svg width="40" height="40" viewBox="0 0 40 40" fill="none"
    xmlns="http://www.w3.org/2000/svg">
    <circle cx="20" cy="20" r="20" fill="black"/>
    <path fill-rule="evenodd" clip-rule="evenodd" d="M39.2423 25.4716C39.7359 23.7326 40 21.8971 40 20C40 18.5814 39.8523 17.1974 39.5715 15.8623L39.4365 15.9826C39.372 16.04 39.2957 16.0825 39.2129 16.1072L36.0427 17.0517L36.0474 20.4838C36.0477 20.7136 35.9144 20.9226 35.7058 21.0191L32.5192 22.4939L35.0316 26.8259L38.6089 25.351C38.8304 25.2597 39.078 25.3131 39.2423 25.4716ZM38.7448 26.9892L38.5626 26.6441L35.0048 28.111C34.7323 28.2233 34.4187 28.1169 34.2708 27.862L31.1763 22.5261C31.0932 22.3829 31.0743 22.2113 31.1241 22.0533C31.174 21.8954 31.2881 21.7658 31.4384 21.6962L34.869 20.1084L34.8643 16.6136C34.8639 16.3528 35.0351 16.1228 35.285 16.0484L38.751 15.0158L39.2536 14.5681C36.8868 6.16197 29.163 0 20 0C8.9543 0 0 8.9543 0 20C0 31.0457 8.9543 40 20 40C28.5871 40 35.9102 34.5882 38.7448 26.9892Z" fill="#BD0008"/>
    <path fill-rule="evenodd" clip-rule="evenodd" d="M28.3947 26.8892C26.2465 26.8732 25.6418 27.2551 25.6631 24.8577C25.6684 24.0356 25.6525 23.2187 25.679 22.4125C25.7055 21.4896 25.8328 21.2509 26.7557 21.1183C26.9838 22.211 27.2914 22.9907 27.6097 24.0568C27.7847 24.6402 28.3894 26.4012 28.4 26.8892H28.3947ZM8.14372 20.5243C10.2282 20.0363 12.0263 21.601 12.3658 23.2877C12.8007 25.4411 11.289 27.1597 9.62356 27.5044C4.99841 28.4539 3.50796 21.6063 8.14372 20.5243ZM18.6723 20.5084C20.5712 20.1106 22.5071 21.3888 22.8572 23.3673C23.0375 24.3962 22.7776 25.3616 22.2578 26.0989C20.3908 28.7456 16.3544 27.5946 15.8505 24.6986C15.4846 22.6035 16.8954 20.885 18.6776 20.5084H18.6723ZM3.11546 22.6883C2.31985 22.2163 2.53732 22.1898 2.55323 21.1449L3.5557 20.9751L3.59813 18.8482C4.40966 18.8747 5.76219 18.9278 6.45172 18.7633C6.58963 17.973 6.26608 17.9253 5.48108 17.9359C4.84459 17.9412 4.21341 17.9465 3.57692 17.9359C3.64587 16.0476 5.44395 16.6364 8.84386 16.594C9.77207 16.5834 9.62886 16.4667 10.1062 16.9865C10.4404 17.3471 10.6048 17.6919 10.9443 17.7927C11.5277 17.9624 13.6918 17.92 14.1214 17.7449C14.3336 17.6123 14.6094 16.9599 14.7579 16.6682L15.6861 16.6311C16.2112 17.2941 16.6143 17.1297 16.6461 18.1321C16.6621 18.5777 16.7416 20.1371 16.5825 20.4447C16.2324 21.1342 15.2087 20.5879 14.4396 20.8531C14.0684 20.9804 13.9305 21.4578 14.3283 21.6806C14.5457 21.8026 15.214 21.7283 15.4952 21.723C15.0337 22.577 14.8003 23.4521 14.9223 24.6349H13.3364C13.2993 23.0861 13.2038 22.1049 12.3127 21.1714C8.8969 17.5699 4.62182 20.5402 4.44678 23.5105C3.90577 23.2718 3.59283 22.9854 3.11546 22.7042V22.6883ZM10.6419 16.2121C10.2813 15.7665 10.4616 12.8546 10.451 12.1651L12.928 12.1704C13.4054 14.8383 14.1585 14.8012 13.6281 16.9069H11.3898L10.6419 16.2121ZM13.8456 12.3719C14.201 11.8733 14.7049 12.2764 14.4768 11.3376C13.9729 11.1679 9.32653 11.1467 8.64761 11.3217C7.9846 11.4968 7.38524 12.1385 7.27385 12.8546C7.16777 13.5388 7.24203 14.9391 7.24733 15.6923H6.39868C6.39338 15.0982 6.48355 13.8677 6.27138 13.3956C5.96905 12.7432 4.62712 12.1757 4.66425 13.1463C4.68016 13.4964 4.63243 13.2736 4.82868 13.438C5.04614 13.6237 5.1257 13.4858 5.47047 13.7404L5.49169 15.6923C2.04404 15.6074 2.83435 17.4108 2.65931 20.1742L1.7258 20.2962C1.58789 20.8319 1.53485 22.2587 1.71519 22.7944C1.96448 23.1392 1.68867 22.8581 2.10239 23.1339L3.23215 23.8552C3.75195 24.1894 4.3407 24.375 4.52104 25.0062C5.71976 29.1911 10.2229 29.2548 12.1801 27.0324C12.6734 26.4754 12.7583 26.2102 13.1348 25.526L15.108 25.5472C15.7922 26.6293 15.7391 26.8626 16.678 27.584C18.7094 29.1381 21.6108 28.613 22.9792 26.6982C23.8119 25.526 23.0588 25.6427 24.7879 25.6321C24.7773 26.8361 25.3554 27.6476 26.4799 27.7802C27.2331 27.8704 29.7048 27.9075 30.2086 27.6264L30.1927 27.0642C29.9753 26.9475 29.6995 26.9316 29.4183 26.8361C29.0205 25.8708 28.7606 24.5448 28.4477 23.4999C28.3045 23.0172 27.6627 20.572 27.2808 20.328C26.9254 20.1053 24.8834 19.9939 24.7189 22.3648L23.552 22.3966C23.1171 21.5851 22.9421 20.9804 21.7327 20.206C20.3537 19.3256 20.6931 18.5936 19.9718 18.0261C19.4891 17.6495 18.3063 17.8722 17.6062 17.8298C17.6062 16.5834 17.2349 17.0077 16.6196 16.2704C15.9672 15.4907 16.0256 15.7294 14.8268 15.6233C14.7155 14.9603 14.1585 12.9023 13.8562 12.3719H13.8456Z" fill="black"/>
    <path fill-rule="evenodd" clip-rule="evenodd" d="M10.1275 24.5077C9.42734 26.1626 6.85487 25.176 7.65048 23.4469C8.36122 21.9034 10.817 22.8794 10.1275 24.5077ZM8.52034 21.808C5.44398 22.4338 6.42524 26.8097 9.369 26.1997C12.1059 25.6322 11.3739 21.2245 8.52034 21.808Z" fill="black"/>
    <path fill-rule="evenodd" clip-rule="evenodd" d="M18.0411 24.2739C17.9085 22.3698 20.2794 22.0727 20.6613 23.717C21.1281 25.706 18.1472 25.828 18.0411 24.2739ZM18.614 21.9348C17.5903 22.2425 16.8159 23.2821 17.2084 24.7089C17.4577 25.6159 18.72 26.5918 20.0938 26.141C22.645 25.3029 21.7274 20.996 18.6087 21.9348H18.614Z" fill="black"/>
</svg>
