<svg width="375" height="518" viewBox="0 0 375 518" fill="none"
    xmlns="http://www.w3.org/2000/svg">
    <path fill-rule="evenodd" clip-rule="evenodd" d="M152.824 513.066C151.975 512.217 151.003 511.506 150.021 510.815C149.092 510.16 148.205 509.417 147.374 508.586L43.6622 404.875C43.0341 404.246 42.4565 403.587 41.9294 402.901C40.8593 401.509 39.832 400.074 38.5902 398.832L-114.858 245.384C-122.668 237.573 -122.668 224.91 -114.858 217.1L-11.1466 113.388C-3.33607 105.578 9.32724 105.578 17.1377 113.388L147.859 244.109C155.669 251.92 168.333 251.92 176.143 244.109L435.111 -14.8589C442.922 -22.6694 455.585 -22.6694 463.396 -14.8589L567.107 88.8524C574.917 96.6629 574.917 109.326 567.107 117.137L294.241 390.002C294.106 390.137 294.106 390.357 294.241 390.492C294.377 390.627 294.377 390.846 294.241 390.982L172.157 513.066C166.818 518.404 158.163 518.404 152.824 513.066Z" fill="#1F1F1F"/>
    <path fill-rule="evenodd" clip-rule="evenodd" d="M161.944 433.603C159.324 433.65 156.69 432.674 154.691 430.675L115.782 391.767C115.5 391.485 115.238 391.19 114.997 390.884C114.509 390.266 114.038 389.631 113.481 389.075L52.0711 327.665C48.1658 323.759 48.1658 317.428 52.0711 313.522L90.9795 274.614C94.8848 270.709 101.216 270.709 105.122 274.614L154.886 324.379C158.792 328.284 165.123 328.284 169.028 324.379L270.336 223.071C274.241 219.166 280.573 219.166 284.478 223.071L323.387 261.98C327.292 265.885 327.292 272.216 323.387 276.122L210.437 389.071C209.88 389.629 209.408 390.264 208.92 390.883C208.678 391.19 208.416 391.485 208.133 391.768L169.225 430.676C167.219 432.682 164.572 433.658 161.944 433.603Z" fill="#007234"/>
</svg>
