<svg width="24" height="24" viewBox="0 0 24 24" fill="white"
    xmlns="http://www.w3.org/2000/svg">
   <path d="M22 14C22 19.523 17.522 24 12 24C6.478 24 2 19.523 2 14C2 8.477 6.478 4 12 4C17.522 4 22 8.477 22 14ZM20 14C20 9.589 16.411 6 12 6C7.589 6 4 9.589 4 14C4 18.411 7.589 22 12 22C16.411 22 20 18.411 20 14ZM14 2.181V0H10V2.181C11.408 1.943 12.562 1.938 14 2.181ZM20.679 5.735L22 4.414L20.586 3L19.179 4.407C19.715 4.809 20.217 5.251 20.679 5.735ZM12 8V14H18C18 10.691 15.309 8 12 8Z"/>
</svg>
