<svg width="375" height="510" viewBox="0 0 375 510" fill="none"
    xmlns="http://www.w3.org/2000/svg">
    <path fill-rule="evenodd" clip-rule="evenodd" d="M201.006 388.003C193.195 380.193 180.532 380.193 172.721 388.003L57.1377 503.587C49.3272 511.397 36.6639 511.397 28.8534 503.587L-74.8579 399.876C-82.6684 392.065 -82.6683 379.402 -74.8579 371.591L40.7259 256.007C48.5364 248.197 48.5364 235.534 40.7259 227.723L-74.8579 112.139C-82.6683 104.329 -82.6684 91.6656 -74.8579 83.8551L28.8534 -19.8562C36.6639 -27.6667 49.3272 -27.6667 57.1377 -19.8562L172.721 95.7276C180.532 103.538 193.195 103.538 201.006 95.7276L316.591 -19.8579C324.402 -27.6684 337.065 -27.6684 344.876 -19.8579L448.587 83.8534C456.397 91.6639 456.397 104.327 448.587 112.138L333.001 227.723C325.191 235.534 325.191 248.197 333.001 256.007L448.587 371.593C456.397 379.403 456.397 392.067 448.587 399.877L344.876 503.589C337.065 511.399 324.402 511.399 316.591 503.589L201.006 388.003Z" fill="#EEEEEE"/>
    <path fill-rule="evenodd" clip-rule="evenodd" d="M194.944 301.995C191.039 298.09 184.707 298.09 180.802 301.995L137.122 345.675C133.216 349.581 126.885 349.581 122.98 345.675L84.0711 306.767C80.1658 302.862 80.1658 296.53 84.0711 292.625L127.751 248.945C131.657 245.039 131.657 238.708 127.751 234.802L84.0711 191.122C80.1658 187.217 80.1658 180.885 84.0711 176.98L122.98 138.071C126.885 134.166 133.216 134.166 137.122 138.071L180.802 181.752C184.707 185.657 191.039 185.657 194.944 181.752L238.625 138.071C242.53 134.166 248.862 134.166 252.767 138.071L291.675 176.98C295.581 180.885 295.581 187.216 291.675 191.122L247.995 234.802C244.09 238.708 244.09 245.039 247.995 248.945L291.675 292.625C295.581 296.53 295.581 302.862 291.675 306.767L252.767 345.676C248.862 349.581 242.53 349.581 238.625 345.676L194.944 301.995Z" fill="#BD0008"/>
</svg>
